<svg xmlns="http://www.w3.org/2000/svg" width="134" height="40" fill="none"><g clip-path="url(#a)"><path fill="#2EBD59" d="M20.095 0C8.997 0 0 8.954 0 20s8.997 20 20.095 20c11.098 0 20.095-8.954 20.095-20C40.19 8.955 31.194 0 20.095 0V0Zm9.215 28.845c-.36.59-1.132.774-1.722.415-4.719-2.87-10.658-3.519-17.653-1.929a1.252 1.252 0 0 1-1.5-.937c-.154-.67.267-1.34.943-1.492 7.654-1.742 14.22-.992 19.517 2.229.59.36.777 1.127.415 1.715Zm2.46-5.445a1.572 1.572 0 0 1-2.155.514c-5.4-3.304-13.635-4.261-20.024-2.33a1.57 1.57 0 0 1-1.955-1.04A1.56 1.56 0 0 1 8.68 18.6c7.298-2.204 16.37-1.136 22.573 2.658.736.451.97 1.411.516 2.143Zm.211-5.67C25.504 13.9 14.82 13.549 8.636 15.417a1.88 1.88 0 0 1-2.344-1.247 1.87 1.87 0 0 1 1.253-2.333c7.098-2.145 18.898-1.73 26.354 2.675a1.866 1.866 0 0 1 .657 2.564 1.883 1.883 0 0 1-2.575.654Zm22.69.733c-3.469-.823-4.087-1.401-4.087-2.616 0-1.147 1.086-1.919 2.7-1.919 1.564 0 3.116.586 4.742 1.793a.228.228 0 0 0 .322-.05l1.694-2.377a.226.226 0 0 0-.043-.308c-1.936-1.546-4.116-2.297-6.664-2.297-3.746 0-6.363 2.237-6.363 5.439 0 3.433 2.258 4.648 6.158 5.587 3.32.761 3.88 1.399 3.88 2.539 0 1.263-1.132 2.048-2.956 2.048-2.025 0-3.677-.679-5.525-2.272a.24.24 0 0 0-.167-.054.226.226 0 0 0-.156.08l-1.9 2.25a.223.223 0 0 0 .023.314c2.15 1.91 4.795 2.919 7.648 2.919 4.037 0 6.646-2.195 6.646-5.593.007-2.868-1.718-4.457-5.944-5.48l-.007-.003Zm15.085-3.405c-1.75 0-3.185.685-4.369 2.091v-1.582a.227.227 0 0 0-.227-.227h-3.107a.227.227 0 0 0-.226.227v17.578c0 .125.1.227.226.227h3.107a.227.227 0 0 0 .227-.227v-5.549c1.184 1.323 2.62 1.969 4.369 1.969 3.25 0 6.542-2.491 6.542-7.253.005-4.763-3.287-7.255-6.539-7.255h-.003Zm2.93 7.254c0 2.425-1.501 4.117-3.65 4.117-2.124 0-3.727-1.77-3.727-4.117 0-2.348 1.603-4.117 3.727-4.117 2.114 0 3.65 1.73 3.65 4.117Zm12.048-7.254c-4.187 0-7.467 3.209-7.467 7.306 0 4.052 3.257 7.227 7.416 7.227 4.202 0 7.492-3.198 7.492-7.28 0-4.067-3.268-7.253-7.441-7.253Zm0 11.395c-2.227 0-3.906-1.781-3.906-4.142 0-2.372 1.62-4.092 3.855-4.092 2.241 0 3.931 1.78 3.931 4.143 0 2.371-1.631 4.09-3.88 4.09Zm16.382-11.113h-3.419v-3.478a.227.227 0 0 0-.226-.227h-3.107a.227.227 0 0 0-.227.227v3.478h-1.494a.227.227 0 0 0-.226.227v2.657c0 .125.1.227.226.227h1.494v6.876c0 2.779 1.39 4.188 4.13 4.188 1.114 0 2.039-.23 2.91-.721a.225.225 0 0 0 .115-.196v-2.53a.228.228 0 0 0-.329-.203c-.599.299-1.177.437-1.824.437-.997 0-1.442-.45-1.442-1.46v-6.39h3.419a.227.227 0 0 0 .227-.226v-2.657a.22.22 0 0 0-.224-.227l-.003-.002Zm11.912.014v-.427c0-1.257.484-1.818 1.57-1.818.648 0 1.168.128 1.751.322a.226.226 0 0 0 .298-.216V10.61c0-.1-.064-.188-.16-.217a8.571 8.571 0 0 0-2.583-.37c-2.869 0-4.386 1.609-4.386 4.65v.654h-1.492a.227.227 0 0 0-.228.226v2.671c0 .125.102.227.228.227h1.492v10.606c0 .125.101.227.227.227h3.106a.227.227 0 0 0 .228-.227V18.452h2.901l4.443 10.603c-.504 1.114-1 1.336-1.677 1.336-.548 0-1.124-.163-1.714-.484a.234.234 0 0 0-.181-.017.229.229 0 0 0-.134.122l-1.053 2.3a.225.225 0 0 0 .098.292c1.099.593 2.092.846 3.318.846 2.294 0 3.562-1.064 4.68-3.925l5.389-13.861a.223.223 0 0 0-.024-.21.225.225 0 0 0-.186-.1h-3.235a.228.228 0 0 0-.215.153l-3.313 9.418-3.629-9.425a.227.227 0 0 0-.212-.145h-5.308l.001-.001Zm-6.906-.014h-3.107a.227.227 0 0 0-.228.227v13.49c0 .125.102.227.228.227h3.107a.227.227 0 0 0 .227-.227V15.568a.222.222 0 0 0-.14-.21.232.232 0 0 0-.088-.017h.001Zm-1.536-6.142c-1.231 0-2.23.992-2.23 2.217s.999 2.218 2.23 2.218c1.23 0 2.228-.993 2.228-2.218a2.222 2.222 0 0 0-2.227-2.217h-.001Zm27.216 10.48a2.173 2.173 0 0 1-2.186-2.177c0-1.193.969-2.187 2.198-2.187S134 16.297 134 17.49a2.193 2.193 0 0 1-2.198 2.189Zm.012-4.148a1.95 1.95 0 0 0-1.967 1.972c0 1.084.841 1.958 1.956 1.958a1.95 1.95 0 0 0 1.968-1.97 1.934 1.934 0 0 0-1.956-1.96h-.001Zm.485 2.183.618.862h-.521l-.557-.79h-.479v.79h-.436V16.29h1.023c.534 0 .884.272.884.73.003.374-.216.602-.53.693h-.002Zm-.37-1.03h-.569v.722h.569c.285 0 .454-.139.454-.362 0-.235-.17-.36-.453-.36h-.001Z"/></g><defs><clipPath id="a"><path fill="#fff" d="M0 0h134v40H0z"/></clipPath></defs></svg>